<?xml version="1.0" standalone="no"?>
<!DOCTYPE svg PUBLIC "-//W3C//DTD SVG 20010904//EN"
 "http://www.w3.org/TR/2001/REC-SVG-20010904/DTD/svg10.dtd">
<svg version="1.0" xmlns="http://www.w3.org/2000/svg"
 width="1024.000000pt" height="1033.000000pt" viewBox="0 0 1024.000000 1033.000000"
 preserveAspectRatio="xMidYMid meet">

<g transform="translate(0.000000,1033.000000) scale(0.100000,-0.100000)"
fill="#112D4E" stroke="none">
<path d="M5060 10311 c0 -5 -8 -11 -17 -14 -10 -4 -38 -18 -63 -33 -25 -15
-60 -35 -77 -45 -18 -11 -49 -28 -68 -39 -87 -50 -103 -59 -153 -89 -29 -17
-55 -31 -58 -31 -3 0 -18 -8 -32 -18 -15 -11 -52 -33 -82 -49 -30 -17 -192
-109 -360 -206 -266 -153 -308 -180 -327 -213 l-23 -39 0 -616 0 -615 -30 -22
c-16 -12 -32 -22 -35 -22 -3 0 -39 -22 -80 -50 -41 -27 -77 -50 -80 -50 -3 0
-39 -22 -80 -50 -41 -27 -77 -50 -80 -50 -3 0 -39 -22 -80 -50 -41 -27 -77
-50 -80 -50 -3 0 -39 -22 -80 -50 -41 -27 -77 -50 -80 -50 -3 0 -39 -22 -80
-50 -41 -27 -77 -50 -80 -50 -3 0 -39 -22 -80 -50 -41 -27 -77 -50 -80 -50 -3
0 -5 65 -5 144 0 187 -13 219 -112 275 -21 12 -54 30 -73 41 -19 11 -51 29
-70 40 -19 11 -51 29 -70 40 -19 11 -51 29 -70 40 -87 50 -103 59 -153 89 -29
17 -54 31 -56 31 -3 0 -39 21 -156 90 -8 5 -129 74 -269 154 -297 170 -298
170 -409 110 -37 -20 -71 -40 -77 -44 -5 -4 -30 -19 -55 -32 -25 -14 -223
-128 -440 -253 -217 -125 -420 -241 -450 -258 -30 -16 -67 -38 -82 -49 -14
-10 -30 -18 -35 -18 -14 0 -48 -40 -67 -79 -14 -30 -16 -99 -16 -642 0 -394 4
-610 10 -614 6 -3 10 -14 10 -24 0 -33 44 -65 200 -149 36 -19 85 -46 110 -60
25 -14 77 -42 115 -62 39 -20 88 -47 110 -60 22 -13 64 -36 93 -52 28 -15 78
-42 110 -59 31 -18 89 -48 127 -69 39 -20 88 -47 110 -60 22 -13 63 -35 90
-50 28 -14 63 -35 78 -44 l27 -18 0 -798 c0 -759 -1 -798 -18 -813 -10 -10
-21 -17 -24 -17 -3 0 -36 -18 -72 -40 -36 -22 -68 -40 -72 -40 -3 0 -18 -8
-32 -19 -15 -10 -44 -28 -64 -40 -21 -11 -55 -31 -75 -43 -21 -11 -56 -31 -78
-42 -22 -12 -42 -23 -45 -26 -6 -6 -41 -26 -108 -62 -30 -15 -66 -36 -80 -46
-15 -10 -40 -24 -57 -32 -16 -8 -41 -22 -55 -31 -14 -9 -42 -26 -62 -38 -21
-11 -55 -31 -75 -42 -21 -12 -63 -35 -93 -52 -96 -53 -134 -83 -157 -127 l-23
-42 0 -608 c0 -395 4 -611 10 -615 6 -3 10 -13 10 -22 0 -9 15 -30 34 -47 33
-31 55 -44 191 -116 39 -20 88 -47 110 -60 22 -13 63 -35 90 -50 28 -15 66
-36 85 -47 19 -11 76 -41 125 -68 50 -26 108 -58 130 -70 22 -12 67 -37 100
-55 33 -18 105 -57 160 -88 226 -125 241 -132 285 -132 43 0 80 17 325 153 50
27 115 63 145 80 30 16 75 41 100 55 25 14 74 41 110 60 36 19 85 46 110 60
25 14 74 41 110 60 36 19 84 45 108 58 23 13 50 24 58 24 8 0 303 -191 655
-425 l639 -424 0 -304 c0 -330 1 -338 57 -387 15 -14 39 -31 52 -38 63 -36
234 -129 301 -165 41 -22 96 -53 123 -68 26 -16 49 -29 51 -29 2 0 41 -21 87
-46 46 -26 109 -60 139 -77 30 -16 75 -41 100 -55 25 -14 74 -41 110 -60 36
-19 85 -46 110 -60 132 -74 152 -82 206 -82 30 0 54 3 54 8 0 4 15 14 33 21
17 8 54 27 80 43 27 15 92 51 145 79 53 28 102 55 107 59 6 4 55 31 110 60 55
29 105 56 110 60 6 4 50 29 99 55 49 25 99 52 110 60 20 12 56 32 216 118 178
95 205 114 228 157 21 41 22 50 22 346 l0 305 640 424 c375 249 650 425 663
425 13 0 27 -4 32 -9 10 -9 53 -34 140 -81 28 -15 66 -36 86 -47 19 -12 80
-44 135 -73 54 -29 104 -56 109 -60 6 -4 44 -25 85 -47 41 -22 122 -66 180
-98 232 -128 246 -135 290 -135 43 0 105 29 315 148 44 25 114 63 155 85 41
22 80 43 85 47 6 4 55 31 109 60 55 29 116 61 135 73 20 11 65 36 101 55 36
19 85 46 110 60 50 28 122 67 190 103 59 32 110 78 110 100 0 10 5 21 10 24 6
4 10 220 10 615 l0 608 -22 42 c-24 44 -62 75 -163 129 -32 18 -71 40 -85 50
-14 9 -38 23 -55 31 -16 8 -48 26 -70 40 -22 14 -53 32 -70 40 -16 8 -48 26
-70 40 -22 14 -53 32 -70 40 -16 8 -48 26 -70 40 -22 14 -53 32 -70 40 -16 8
-41 22 -55 31 -14 9 -42 26 -62 38 -21 11 -54 30 -73 41 -19 11 -51 29 -70 40
-39 22 -89 51 -126 72 -64 36 -59 -41 -59 838 l0 797 38 24 c20 14 60 36 87
49 28 14 52 27 55 30 5 5 54 32 155 84 33 17 62 33 65 36 3 3 25 16 50 29 25
13 69 37 98 52 28 16 78 43 110 60 31 18 89 48 127 69 39 20 93 50 120 66 28
16 80 45 117 63 81 40 148 95 148 121 0 10 5 22 10 25 6 4 10 220 10 614 0
543 -2 612 -16 642 -21 43 -53 79 -71 79 -7 0 -13 3 -13 8 0 4 -10 12 -23 17
-31 15 -111 59 -117 65 -3 3 -16 11 -29 18 -54 31 -102 58 -193 111 -18 10
-57 32 -86 50 -29 17 -55 31 -58 31 -3 0 -18 8 -32 18 -15 11 -52 33 -82 49
-30 17 -122 69 -204 117 -82 47 -151 86 -153 86 -3 0 -17 8 -31 19 -15 10 -61
37 -104 60 -116 63 -135 60 -316 -48 -29 -17 -55 -31 -57 -31 -2 0 -45 -25
-95 -55 -50 -30 -93 -55 -95 -55 -3 0 -34 -18 -70 -40 -36 -22 -67 -40 -70
-40 -3 0 -34 -18 -70 -40 -36 -22 -68 -40 -71 -40 -3 0 -18 -8 -32 -18 -15
-11 -52 -32 -82 -49 -30 -17 -72 -40 -92 -52 -21 -11 -54 -30 -73 -41 -19 -11
-51 -29 -70 -40 -19 -11 -51 -29 -70 -40 -19 -11 -52 -29 -72 -41 -100 -56
-113 -88 -113 -275 0 -79 -2 -144 -5 -144 -3 0 -39 23 -80 50 -41 28 -79 50
-85 50 -5 0 -10 5 -10 10 0 6 -5 10 -11 10 -5 0 -37 18 -69 40 -32 22 -64 40
-69 40 -6 0 -11 5 -11 10 0 6 -5 10 -11 10 -5 0 -37 18 -69 40 -32 22 -62 40
-65 40 -3 0 -38 21 -78 48 -40 26 -80 52 -90 57 -9 6 -57 36 -107 68 -49 31
-130 83 -180 114 l-90 57 0 614 c0 604 0 615 -21 651 -20 36 -75 76 -204 147
-54 29 -109 61 -140 82 -11 6 -27 15 -35 19 -8 4 -43 24 -78 45 -34 21 -64 38
-67 38 -3 0 -34 18 -70 40 -36 22 -67 40 -70 40 -3 0 -34 18 -70 40 -36 22
-68 40 -71 40 -3 0 -18 8 -32 18 -15 11 -52 32 -82 49 -30 17 -79 44 -108 62
-29 17 -55 31 -58 31 -3 0 -24 13 -47 28 -23 16 -57 35 -74 43 -18 8 -33 17
-33 21 0 5 -29 8 -65 8 -36 0 -65 -4 -65 -9z m105 -321 c17 -8 48 -26 70 -40
22 -14 54 -32 70 -40 17 -8 48 -26 70 -40 22 -14 54 -32 70 -40 17 -8 49 -27
72 -42 23 -15 44 -28 47 -28 4 0 36 -18 72 -40 36 -22 68 -40 70 -40 2 0 27
-14 56 -31 29 -18 73 -43 98 -57 56 -30 140 -83 140 -87 0 -2 -12 -10 -27 -18
-74 -38 -118 -62 -123 -67 -3 -3 -32 -19 -65 -36 -68 -35 -149 -79 -215 -116
-25 -14 -76 -43 -115 -63 -38 -21 -95 -51 -125 -68 -30 -16 -82 -44 -115 -61
-33 -17 -61 -34 -63 -38 -2 -5 -14 -8 -27 -8 -13 0 -25 3 -27 8 -1 4 -30 21
-63 38 -102 53 -150 79 -155 84 -3 3 -32 19 -65 36 -100 52 -150 79 -155 84
-3 3 -32 19 -65 36 -70 36 -154 82 -209 113 -22 13 -61 34 -88 48 -26 14 -48
26 -48 28 0 4 86 58 140 87 25 14 69 39 98 57 29 17 55 31 58 31 3 0 18 8 32
18 15 11 52 32 82 49 30 17 79 44 108 62 29 17 55 31 58 31 3 0 18 8 32 18 15
11 52 32 82 49 30 17 73 40 95 53 66 38 88 49 94 47 3 -2 20 -9 36 -17z m-977
-782 c43 -23 93 -50 112 -61 19 -11 58 -32 85 -47 28 -15 68 -37 90 -50 22
-13 72 -40 110 -60 39 -21 96 -51 128 -69 31 -17 81 -44 110 -59 98 -54 132
-74 150 -90 16 -14 17 -47 17 -423 0 -255 -4 -410 -10 -414 -5 -3 -31 6 -57
21 -27 15 -72 40 -100 56 -29 15 -78 42 -108 58 -30 17 -80 44 -110 60 -30 17
-79 43 -107 59 -146 79 -176 95 -213 116 -22 12 -71 39 -110 60 -38 21 -73 43
-77 49 -9 13 -10 821 -1 830 9 9 9 9 91 -36z m1970 -364 c1 -219 0 -408 -2
-419 -3 -12 -20 -28 -38 -38 -18 -9 -62 -33 -98 -53 -36 -20 -96 -53 -135 -74
-38 -20 -90 -48 -115 -62 -25 -14 -76 -43 -115 -63 -38 -21 -94 -51 -122 -66
-29 -16 -77 -42 -105 -57 -29 -16 -75 -41 -102 -57 -39 -22 -50 -24 -57 -14
-5 8 -9 194 -9 415 0 369 1 402 18 416 19 18 63 43 167 98 39 20 88 47 110 60
22 13 72 40 110 60 39 20 88 47 110 60 22 13 72 40 110 60 74 39 170 92 220
121 17 10 35 16 40 15 6 -2 11 -147 13 -402z m-4670 -427 c20 -13 62 -37 92
-54 30 -17 154 -88 275 -158 121 -70 245 -141 275 -158 30 -16 67 -38 82 -49
14 -10 30 -18 35 -18 11 0 69 -47 63 -52 -3 -2 -25 -14 -50 -27 -25 -13 -69
-37 -97 -52 -29 -16 -79 -43 -110 -60 -32 -18 -89 -48 -128 -69 -38 -20 -88
-47 -110 -60 -22 -13 -64 -36 -92 -52 -29 -15 -79 -42 -110 -59 -32 -18 -84
-45 -116 -62 -63 -34 -55 -35 -160 25 -27 16 -92 51 -145 79 -53 28 -102 55
-108 60 -6 5 -44 26 -85 47 -126 66 -164 87 -169 92 -5 5 -51 29 -192 102 -35
18 -65 34 -68 36 -6 5 52 52 63 52 5 0 21 8 35 18 15 11 52 32 82 49 60 33
275 156 408 234 45 27 84 49 86 49 2 0 33 17 68 38 109 64 123 71 131 72 4 0
24 -10 45 -23z m7352 9 c14 -7 187 -107 385 -221 198 -114 376 -216 395 -227
38 -21 67 -46 59 -50 -2 -2 -29 -16 -59 -32 -83 -43 -170 -90 -220 -118 -25
-14 -74 -41 -110 -60 -36 -19 -85 -46 -110 -60 -95 -53 -304 -167 -343 -187
-30 -16 -33 -14 -177 67 -25 14 -76 42 -115 62 -38 20 -88 47 -110 60 -22 13
-71 40 -110 60 -38 20 -88 47 -110 60 -54 31 -138 77 -210 114 -33 16 -62 32
-65 34 -6 5 52 52 63 52 5 0 21 8 35 18 15 11 52 33 82 49 30 17 197 112 370
212 173 99 317 181 320 181 3 0 16 -6 30 -14z m-4764 -335 c5 -5 50 -30 99
-56 50 -26 104 -56 120 -65 17 -10 59 -34 95 -52 36 -19 83 -45 105 -58 22
-13 72 -40 110 -60 39 -20 88 -47 110 -60 22 -13 73 -41 114 -62 40 -22 92
-50 115 -63 l41 -23 3 -526 2 -526 -40 -25 c-22 -14 -42 -25 -46 -25 -3 0 -18
-8 -32 -18 -15 -11 -52 -32 -82 -49 -30 -17 -79 -44 -108 -62 -29 -17 -55 -31
-58 -31 -3 0 -18 -8 -32 -18 -15 -11 -52 -33 -82 -49 -30 -17 -168 -96 -307
-175 l-251 -146 -169 111 c-92 60 -258 168 -368 240 -110 72 -278 181 -372
244 -95 62 -177 113 -183 113 -5 0 -10 4 -10 8 0 5 -12 15 -27 23 -60 31 -58
18 -55 339 l3 295 49 33 c27 17 54 32 60 32 5 0 10 5 10 10 0 6 5 10 11 10 5
0 37 18 69 40 32 22 64 40 69 40 6 0 11 5 11 10 0 6 5 10 10 10 6 0 44 23 85
50 41 28 77 50 80 50 3 0 39 23 80 50 41 28 77 50 80 50 3 0 33 18 65 40 32
22 61 40 64 40 2 0 39 23 80 50 42 28 80 50 85 50 5 0 11 3 13 8 3 7 85 60
138 89 14 8 63 38 109 68 82 53 116 65 137 46z m2222 -34 c37 -24 103 -66 147
-94 119 -74 230 -143 325 -203 95 -60 206 -129 325 -203 44 -28 112 -70 150
-95 39 -25 79 -50 90 -56 12 -6 49 -29 83 -51 l61 -40 3 -295 c2 -162 -1 -301
-6 -308 -5 -7 -24 -20 -42 -28 -19 -9 -34 -20 -34 -25 0 -5 -4 -9 -10 -9 -5 0
-98 -58 -205 -130 -108 -71 -198 -130 -200 -130 -3 0 -96 -60 -207 -133 -112
-74 -265 -175 -342 -224 l-138 -91 -112 65 c-61 36 -136 79 -166 96 -30 17
-67 38 -82 49 -14 10 -29 18 -32 18 -3 0 -29 14 -58 31 -29 18 -78 45 -108 62
-30 17 -67 38 -82 49 -14 10 -29 18 -32 18 -3 0 -29 14 -58 31 -29 18 -68 40
-85 50 -67 39 -104 60 -139 79 -19 11 -46 28 -60 36 l-24 16 2 525 3 525 45
26 c25 14 77 42 115 62 39 21 96 51 128 69 31 17 81 44 110 59 28 16 72 40 97
54 41 23 76 42 215 118 28 15 82 44 120 65 39 21 74 42 80 46 19 18 57 8 123
-34z m-5852 -386 c5 -6 43 -28 84 -49 41 -22 101 -53 133 -71 31 -17 82 -44
112 -61 30 -16 80 -43 110 -60 30 -16 79 -43 108 -58 28 -16 70 -39 92 -52 22
-13 74 -41 115 -63 41 -22 81 -44 88 -49 9 -8 12 -105 12 -423 0 -226 -3 -414
-6 -418 -5 -5 -108 46 -214 106 -19 11 -64 36 -100 55 -36 19 -85 46 -110 60
-25 14 -74 41 -110 60 -36 19 -85 46 -110 60 -121 68 -168 93 -202 109 l-38
18 0 422 c0 431 1 447 36 414z m2024 -410 c0 -323 -3 -421 -12 -429 -7 -5 -42
-25 -78 -44 -36 -19 -85 -46 -110 -60 -25 -14 -76 -43 -115 -63 -38 -21 -94
-51 -122 -66 -29 -16 -78 -42 -108 -59 -30 -16 -80 -43 -110 -60 -101 -55
-170 -93 -194 -106 -14 -7 -28 -11 -33 -8 -10 7 -10 815 0 832 5 7 26 22 48
34 21 11 59 32 84 46 60 33 139 76 225 122 39 20 88 47 110 60 22 13 72 40
110 60 39 20 90 49 115 63 25 15 70 39 100 54 30 15 57 31 58 35 2 4 10 8 18
8 12 0 14 -64 14 -419z m5346 410 c5 -5 35 -23 67 -40 31 -17 81 -44 110 -60
28 -15 84 -45 122 -66 39 -20 90 -49 115 -63 25 -14 74 -41 110 -60 36 -19 85
-46 110 -60 25 -14 79 -43 120 -64 41 -22 81 -47 88 -56 9 -12 12 -112 12
-422 0 -224 -3 -409 -6 -413 -5 -5 -117 50 -209 103 -22 13 -71 40 -110 60
-38 21 -96 51 -127 69 -32 17 -82 44 -110 59 -29 16 -71 39 -93 52 -22 13 -71
40 -110 60 -38 20 -82 44 -97 54 l-28 18 0 419 c0 427 1 443 36 410z m2024
-415 c0 -395 -1 -424 -17 -429 -10 -3 -47 -22 -83 -43 -61 -35 -106 -59 -252
-137 -35 -19 -81 -44 -103 -57 -22 -13 -64 -36 -92 -52 -29 -15 -78 -41 -108
-58 -101 -55 -170 -93 -194 -106 -14 -7 -28 -11 -33 -8 -4 3 -8 191 -8 418 0
319 3 416 13 424 6 5 48 29 92 52 44 24 104 56 133 71 28 16 76 42 105 57 28
16 70 39 92 52 22 13 72 40 110 60 39 20 88 47 110 60 22 13 74 41 115 62 41
22 79 43 85 49 34 33 35 17 35 -415z m-7245 -776 c41 -27 79 -50 85 -50 5 0
10 -4 10 -8 0 -5 12 -15 28 -23 15 -7 100 -62 189 -121 90 -60 165 -108 168
-108 3 0 15 -9 27 -20 12 -11 28 -20 35 -20 7 0 13 -4 13 -10 0 -5 5 -10 10
-10 6 0 78 -45 160 -100 82 -55 154 -100 159 -100 4 0 15 -7 22 -16 7 -9 20
-19 29 -23 8 -3 72 -44 143 -90 l127 -84 0 -516 0 -517 -77 -53 c-73 -49 -158
-108 -377 -263 -120 -86 -258 -182 -352 -247 -44 -30 -81 -57 -84 -60 -3 -4
-48 -35 -100 -71 -52 -35 -97 -67 -100 -70 -7 -9 -98 -70 -104 -70 -3 0 -29
14 -58 31 -50 30 -66 39 -153 89 -19 11 -51 29 -70 40 -19 11 -51 29 -70 40
-19 11 -51 29 -70 40 -19 11 -51 29 -70 40 -19 11 -51 29 -70 40 -19 11 -51
29 -70 40 -19 11 -51 29 -70 40 -19 11 -51 29 -70 40 -19 11 -51 29 -70 40
-39 22 -89 51 -126 72 -64 36 -59 -41 -59 839 l0 797 33 20 c17 11 61 36 97
55 36 18 85 45 110 59 25 14 74 41 110 60 36 19 85 46 110 60 25 14 74 41 110
60 36 19 83 45 105 58 22 13 72 40 110 60 39 20 86 46 105 58 19 11 39 21 43
21 4 1 41 -21 82 -49z m5199 20 c31 -16 80 -43 109 -59 28 -15 72 -39 97 -52
25 -13 47 -26 50 -29 3 -3 32 -19 65 -36 33 -17 86 -45 118 -63 31 -17 81 -44
110 -60 28 -15 72 -39 97 -52 25 -13 47 -26 50 -29 3 -3 28 -16 55 -30 28 -13
67 -35 88 -49 l37 -24 0 -795 c0 -726 -1 -797 -17 -814 -9 -10 -19 -18 -24
-18 -4 0 -37 -18 -73 -40 -36 -22 -68 -40 -72 -40 -3 0 -18 -8 -32 -18 -15
-11 -52 -32 -82 -49 -30 -17 -72 -40 -92 -52 -21 -11 -53 -29 -70 -40 -18 -10
-57 -32 -86 -50 -29 -17 -55 -31 -58 -31 -3 0 -18 -8 -32 -18 -15 -11 -52 -32
-82 -49 -30 -17 -79 -44 -108 -62 -29 -17 -54 -31 -56 -31 -2 0 -34 -18 -70
-40 -36 -22 -69 -40 -73 -40 -5 0 -30 17 -58 38 -27 21 -79 58 -115 82 -36 24
-67 46 -70 50 -3 4 -48 35 -100 70 -52 35 -97 66 -100 70 -3 3 -48 35 -100 70
-52 36 -97 67 -100 71 -3 3 -39 29 -80 57 -41 29 -122 85 -180 126 -58 41
-147 103 -197 138 l-93 63 0 515 0 516 107 69 c442 289 529 346 540 355 7 6
15 10 18 10 3 0 86 54 185 120 99 66 184 120 190 120 5 0 10 5 10 10 0 6 6 10
13 11 6 0 57 31 112 69 55 38 103 69 106 69 4 1 32 -12 63 -29z m-2592 -261
c50 -30 66 -39 153 -89 19 -11 51 -29 70 -40 19 -11 52 -30 73 -41 20 -12 62
-35 92 -52 30 -16 60 -33 65 -37 6 -4 27 -17 48 -29 20 -12 54 -31 75 -42 20
-12 57 -33 82 -47 88 -48 141 -85 133 -92 -4 -4 -42 -26 -83 -47 -41 -22 -95
-51 -120 -65 -25 -14 -74 -41 -110 -60 -36 -19 -85 -46 -110 -60 -25 -14 -74
-41 -110 -60 -36 -19 -85 -46 -110 -60 -25 -14 -70 -38 -100 -54 -30 -16 -57
-31 -60 -34 -26 -26 -78 -37 -96 -21 -5 5 -35 23 -66 40 -32 17 -83 45 -113
61 -30 17 -80 44 -110 60 -30 17 -80 44 -110 60 -30 17 -80 44 -110 60 -30 17
-79 43 -107 59 -29 15 -89 47 -133 71 -44 23 -84 46 -88 50 -5 4 20 25 55 45
60 36 83 49 163 95 19 11 51 29 70 40 19 11 51 29 70 40 19 11 51 29 70 40 19
11 51 29 70 40 19 11 51 29 70 40 19 11 51 29 70 40 19 11 51 29 70 40 19 11
52 29 73 41 20 11 41 25 47 30 18 18 65 9 117 -22z m-1035 -750 c32 -17 76
-42 98 -54 22 -12 67 -37 100 -55 33 -18 80 -44 105 -58 25 -14 77 -42 115
-62 39 -20 88 -47 110 -60 22 -13 72 -40 110 -60 104 -55 148 -80 168 -98 16
-14 17 -47 17 -423 0 -255 -4 -410 -10 -414 -5 -3 -31 6 -57 21 -27 15 -77 43
-113 62 -36 19 -85 46 -110 60 -25 14 -77 42 -116 63 -39 21 -95 52 -123 69
-29 16 -53 30 -55 30 -2 0 -41 21 -87 46 -46 26 -109 60 -139 76 -100 55 -90
7 -90 468 1 357 3 420 16 420 2 0 29 -14 61 -31z m1988 -389 l0 -414 -40 -27
c-22 -14 -71 -43 -110 -64 -73 -39 -139 -75 -227 -124 -29 -16 -82 -44 -118
-63 -36 -19 -83 -45 -105 -58 -22 -13 -71 -40 -110 -60 -88 -46 -147 -79 -161
-91 -8 -6 -14 -4 -18 7 -3 8 -6 196 -6 417 0 359 2 402 17 419 9 10 22 18 29
18 7 0 14 3 16 8 2 4 23 18 48 31 25 13 69 37 98 52 28 16 77 43 107 59 30 17
80 44 110 60 30 17 80 44 110 60 30 17 79 43 108 59 81 44 169 93 202 112 17
10 35 16 40 15 6 -2 10 -149 10 -416z m-2114 -721 c41 -23 108 -59 149 -81 41
-23 101 -56 133 -75 32 -18 60 -33 61 -33 2 0 41 -21 87 -46 46 -26 109 -60
139 -77 30 -16 75 -41 100 -55 25 -14 78 -43 119 -64 40 -22 92 -50 115 -63
l41 -23 3 -555 2 -555 -24 -16 c-14 -8 -41 -25 -60 -36 -20 -11 -52 -29 -71
-40 -19 -11 -51 -29 -70 -40 -19 -11 -51 -29 -70 -40 -87 -50 -103 -59 -153
-89 -29 -17 -55 -31 -58 -31 -3 0 -18 -8 -32 -18 -15 -11 -52 -33 -82 -49 -66
-36 -476 -273 -507 -293 -12 -8 -31 -30 -42 -51 -18 -32 -21 -54 -21 -168 0
-85 -4 -131 -11 -131 -5 0 -215 137 -466 305 -250 168 -458 305 -462 305 -5 0
-16 9 -26 20 -10 11 -23 20 -30 20 -7 0 -18 8 -26 18 -12 14 -13 108 -9 596
l5 579 70 48 c39 27 104 72 145 101 41 28 77 54 80 58 3 4 48 35 100 70 52 35
97 66 100 70 3 4 39 30 80 58 132 90 502 351 555 391 22 17 45 31 51 31 6 0
44 -18 85 -41z m2397 -56 c76 -53 166 -117 202 -143 36 -25 110 -78 165 -117
55 -38 120 -84 145 -102 25 -17 86 -59 135 -93 50 -34 106 -74 125 -88 19 -15
88 -64 152 -109 l118 -83 2 -576 3 -577 -29 -27 c-16 -15 -43 -34 -60 -43 -17
-9 -51 -30 -76 -48 -26 -18 -53 -36 -62 -42 -10 -5 -191 -126 -403 -267 -212
-142 -390 -258 -395 -258 -6 0 -10 50 -10 127 0 138 -15 193 -62 222 -36 23
-307 180 -368 214 -30 16 -67 38 -82 49 -14 10 -29 18 -32 18 -4 0 -36 18 -72
40 -36 22 -68 40 -70 40 -2 0 -27 14 -56 31 -50 30 -66 39 -153 89 -19 11 -51
29 -70 40 -19 11 -51 29 -70 40 -19 11 -51 29 -71 40 -19 11 -46 28 -60 36
l-24 16 2 556 3 555 60 32 c33 18 92 49 130 70 39 20 90 49 115 63 25 14 79
43 120 65 41 22 80 43 85 47 6 4 51 29 100 55 50 26 95 51 100 55 6 4 44 25
85 47 162 87 195 106 205 114 19 18 39 7 173 -88z m-4853 -243 c50 -29 115
-66 145 -83 30 -16 66 -37 80 -46 14 -9 39 -23 55 -31 17 -8 41 -22 55 -31 14
-9 42 -26 63 -38 20 -11 53 -30 72 -41 19 -11 51 -29 70 -40 19 -11 52 -30 73
-42 20 -11 54 -30 75 -41 20 -12 37 -24 37 -28 0 -7 -39 -30 -175 -104 -38
-21 -180 -99 -315 -173 -135 -74 -275 -151 -312 -171 l-66 -35 -59 30 c-32 17
-80 43 -108 59 -27 15 -68 38 -90 50 -65 36 -485 265 -550 301 -33 18 -61 37
-63 42 -1 5 12 17 30 26 18 9 56 30 83 46 28 16 66 37 85 47 19 9 37 19 40 22
6 7 40 27 95 55 22 12 42 23 45 26 3 3 16 11 29 18 40 23 89 51 129 73 20 12
62 35 92 52 30 16 60 33 65 37 11 9 69 41 133 76 50 27 37 31 187 -56z m7289
45 c32 -19 60 -35 62 -35 3 0 34 -18 70 -40 36 -22 68 -40 70 -40 2 0 27 -14
56 -31 50 -30 66 -39 153 -89 19 -11 51 -29 70 -40 19 -11 51 -29 70 -40 19
-11 51 -29 70 -40 19 -11 52 -30 73 -42 20 -11 54 -30 75 -41 20 -12 36 -25
34 -30 -3 -9 -28 -24 -182 -107 -44 -23 -84 -46 -90 -50 -5 -4 -44 -25 -85
-47 -67 -36 -118 -64 -335 -183 -33 -18 -86 -47 -118 -63 -65 -34 -51 -37
-187 38 -109 61 -182 101 -255 140 -38 21 -83 46 -100 55 -16 10 -55 31 -85
47 -289 158 -294 161 -297 170 -2 5 14 18 34 30 21 11 55 30 76 41 20 12 53
31 72 42 19 11 51 29 70 40 19 11 51 29 70 40 19 11 51 29 70 40 19 11 51 29
70 40 19 11 51 29 70 40 87 50 103 59 153 89 29 17 54 31 56 31 2 0 30 16 62
35 32 19 61 35 64 35 3 0 32 -16 64 -35z m-8419 -739 c11 -7 54 -31 95 -53 41
-22 95 -51 120 -65 25 -14 72 -40 105 -58 33 -18 78 -43 100 -55 22 -12 67
-37 100 -55 116 -63 211 -114 265 -145 l55 -31 3 -422 c1 -232 -1 -422 -5
-422 -8 0 -173 89 -403 218 -25 14 -74 41 -110 60 -36 19 -85 46 -110 60 -48
27 -124 68 -205 111 l-50 27 -3 422 c-2 448 -3 440 43 408z m2013 -408 l-3
-421 -35 -20 c-19 -11 -59 -33 -87 -49 -29 -15 -78 -41 -108 -58 -30 -16 -79
-43 -107 -58 -29 -16 -69 -38 -88 -49 -19 -11 -71 -39 -115 -63 -44 -24 -111
-60 -148 -82 -38 -21 -71 -38 -73 -38 -2 0 -21 -11 -42 -24 -20 -12 -47 -26
-60 -30 l-22 -7 2 423 3 423 40 20 c22 11 65 34 95 51 69 40 134 75 230 127
41 22 80 43 85 47 6 4 50 29 100 55 49 27 106 57 125 68 77 44 195 106 203
107 4 0 6 -190 5 -422z m5348 413 c5 -5 43 -27 84 -49 41 -21 113 -60 159 -86
46 -25 85 -46 87 -46 1 0 29 -15 61 -34 32 -18 87 -49 123 -68 69 -37 241
-132 300 -165 l35 -20 3 -422 2 -422 -22 7 c-13 3 -27 10 -33 14 -12 9 -160
91 -272 151 -43 23 -89 48 -102 57 -13 8 -53 30 -88 48 -136 73 -189 102 -338
184 l-30 17 -3 421 c-2 343 0 422 11 422 7 0 17 -4 23 -9z m2022 -413 l-3
-421 -33 -19 c-18 -10 -65 -36 -105 -57 -40 -21 -94 -51 -122 -66 -116 -65
-143 -79 -195 -108 -30 -16 -84 -46 -120 -65 -250 -137 -296 -162 -303 -162
-4 0 -6 190 -5 422 l3 421 35 20 c55 30 438 241 505 277 33 18 78 43 100 55
51 29 170 94 204 111 14 8 29 14 34 14 4 0 6 -190 5 -422z m-4672 -507 c5 -5
26 -19 47 -30 35 -20 61 -34 145 -82 20 -12 62 -35 92 -52 30 -17 67 -38 82
-49 14 -10 29 -18 32 -18 4 0 36 -18 72 -40 36 -22 68 -40 70 -40 2 0 27 -14
56 -31 53 -32 86 -51 154 -89 65 -37 85 -53 77 -60 -4 -4 -39 -24 -78 -45 -86
-46 -166 -90 -225 -123 -25 -14 -74 -41 -110 -60 -36 -19 -85 -46 -110 -60
-25 -14 -69 -38 -97 -54 -29 -15 -77 -41 -105 -56 -29 -16 -70 -39 -91 -50
-40 -24 -67 -28 -83 -13 -5 5 -40 26 -79 46 -38 21 -90 49 -115 63 -25 14 -74
41 -110 60 -36 19 -85 46 -110 60 -25 14 -69 38 -97 54 -29 15 -77 41 -105 57
-29 15 -89 47 -133 71 -44 23 -84 46 -88 50 -8 7 12 23 77 60 20 11 52 29 71
40 19 11 51 29 70 40 19 11 51 29 70 40 19 11 51 29 70 40 19 11 51 29 70 40
19 11 51 29 70 40 19 11 51 29 70 40 19 11 51 29 70 40 19 11 51 29 70 40 19
11 52 29 73 41 20 11 41 25 47 30 5 5 23 9 40 9 17 0 35 -4 41 -9z m-999 -772
c32 -17 76 -42 98 -54 22 -12 67 -37 100 -55 33 -18 80 -44 105 -58 25 -14 77
-42 115 -62 39 -20 88 -47 110 -60 22 -13 72 -40 110 -60 104 -55 148 -80 168
-98 16 -14 17 -47 17 -423 0 -255 -4 -410 -10 -414 -5 -3 -31 6 -57 21 -27 15
-77 43 -113 62 -36 19 -85 46 -110 60 -25 14 -74 41 -110 60 -36 19 -85 46
-110 60 -25 14 -79 43 -120 65 -41 22 -79 43 -85 47 -5 4 -41 24 -80 45 -117
62 -105 10 -105 475 0 355 3 420 16 420 2 0 29 -14 61 -31z m1988 -389 l0
-414 -40 -27 c-22 -14 -71 -43 -110 -64 -38 -21 -94 -51 -122 -66 -29 -16 -78
-42 -108 -59 -147 -80 -173 -95 -215 -118 -25 -14 -72 -39 -105 -56 -33 -17
-62 -33 -65 -36 -3 -3 -18 -12 -35 -20 -16 -8 -42 -22 -56 -32 -24 -16 -28
-16 -33 -2 -3 9 -6 197 -6 418 0 442 -4 409 59 444 13 8 40 23 60 35 20 11 68
37 106 57 39 20 88 47 110 60 22 13 73 41 114 62 41 21 79 42 85 47 6 5 55 32
108 60 87 46 178 96 218 121 8 5 20 8 25 6 6 -2 10 -149 10 -416z"/>
</g>
</svg>
