<?xml version="1.0" standalone="no"?>
<!DOCTYPE svg PUBLIC "-//W3C//DTD SVG 20010904//EN"
 "http://www.w3.org/TR/2001/REC-SVG-20010904/DTD/svg10.dtd">
<svg version="1.0" xmlns="http://www.w3.org/2000/svg"
 width="151.000000pt" height="127.000000pt" viewBox="0 0 151.000000 127.000000"
 preserveAspectRatio="xMidYMid meet">
<metadata>
Created by potrace 1.16, written by Peter Selinger 2001-2019
</metadata>
<g transform="translate(0.000000,127.000000) scale(0.100000,-0.100000)"
fill="#112D4E" stroke="none">
<path d="M490 1224 c-62 -27 -100 -86 -100 -158 l0 -45 -107 1 c-195 0 -182 2
-225 -43 -38 -40 -39 -41 -36 -112 l3 -71 85 -23 c47 -13 153 -42 237 -63 84
-22 189 -49 234 -61 59 -15 84 -18 92 -10 16 16 127 14 146 -3 14 -13 25 -12
81 3 36 10 103 28 150 40 188 49 416 113 430 120 22 12 16 125 -10 166 -30 49
-62 57 -214 57 l-134 0 -4 59 c-5 69 -26 103 -84 136 -37 22 -49 23 -274 22
-187 0 -242 -3 -270 -15z m495 -120 c10 -10 15 -29 13 -48 l-3 -31 -242 -1
-243 -2 0 31 c0 17 7 39 17 49 15 16 35 18 229 18 183 0 215 -2 229 -16z"/>
<path d="M1350 734 c-69 -19 -177 -48 -240 -65 -261 -71 -273 -75 -281 -98 -7
-19 -16 -21 -79 -21 -65 0 -71 2 -80 24 -10 26 -11 27 -255 91 -77 20 -188 50
-247 66 -167 45 -148 82 -148 -293 0 -298 2 -325 19 -354 40 -66 22 -64 715
-64 686 0 672 -1 715 59 22 30 22 37 23 358 1 189 -3 328 -8 329 -5 2 -65 -13
-134 -32z"/>
</g>
</svg>
