<?xml version="1.0" standalone="no"?>
<!DOCTYPE svg PUBLIC "-//W3C//DTD SVG 20010904//EN"
 "http://www.w3.org/TR/2001/REC-SVG-20010904/DTD/svg10.dtd">
<svg version="1.0" xmlns="http://www.w3.org/2000/svg"
 width="151.000000pt" height="151.000000pt" viewBox="0 0 151.000000 151.000000"
 preserveAspectRatio="xMidYMid meet">
<metadata>
Created by potrace 1.16, written by Peter Selinger 2001-2019
</metadata>
<g transform="translate(0.000000,151.000000) scale(0.100000,-0.100000)"
fill="#112D4E" stroke="none">
<path d="M679 1384 c-30 -32 -33 -102 -6 -132 17 -19 17 -20 -5 -26 -13 -3
-34 -6 -47 -6 -41 0 -153 -31 -203 -56 -52 -26 -113 -31 -164 -12 -47 17 -84
-9 -84 -57 0 -29 6 -39 33 -55 17 -11 40 -20 50 -20 10 0 17 -3 15 -8 -1 -4
-43 -84 -92 -179 -68 -133 -93 -173 -110 -175 -17 -2 -20 -9 -18 -32 6 -53 66
-110 146 -138 74 -25 199 -24 273 3 75 28 143 93 143 137 0 23 -5 31 -21 34
-16 2 -42 45 -110 173 -49 94 -89 173 -89 178 0 4 10 7 23 7 22 0 78 16 152
44 22 8 50 15 63 16 l22 0 0 -349 0 -348 -29 -6 c-21 -5 -34 -16 -47 -46 -19
-40 -19 -40 -77 -41 -32 0 -67 -5 -78 -10 -19 -10 -49 -59 -49 -80 0 -7 121
-10 380 -10 338 0 380 2 380 16 0 50 -54 84 -135 84 -47 0 -55 3 -55 19 0 24
-47 71 -71 71 -18 0 -19 15 -19 350 0 406 -15 369 127 320 47 -16 97 -30 110
-30 12 0 23 -3 23 -7 0 -5 -40 -84 -89 -178 -70 -134 -94 -171 -111 -173 -20
-3 -22 -8 -17 -40 14 -84 137 -152 276 -152 137 0 238 47 273 128 20 45 17 62
-10 62 -13 0 -44 52 -111 180 -75 147 -89 180 -74 180 10 0 33 9 51 20 26 16
32 26 32 55 0 50 -36 72 -89 56 -61 -18 -105 -13 -170 18 -55 26 -94 36 -224
56 l-38 6 21 26 c28 36 26 85 -6 122 -22 27 -33 31 -73 31 -38 0 -52 -5 -72
-26z m-282 -604 l63 -120 -131 0 c-72 0 -129 4 -127 9 11 28 123 231 127 231
3 0 34 -54 68 -120z m803 78 c12 -24 40 -75 61 -115 21 -39 39 -74 39 -77 0
-3 -59 -6 -130 -6 l-130 0 62 120 c35 66 66 120 69 120 4 0 17 -19 29 -42z"/>
</g>
</svg>
